<?xml version="1.0" encoding="utf-8"?>
<!-- Generator: Adobe Illustrator 22.0.1, SVG Export Plug-In . SVG Version: 6.00 Build 0)  -->
<svg version="1.1" id="Layer_1" xmlns="http://www.w3.org/2000/svg" xmlns:xlink="http://www.w3.org/1999/xlink" x="0px" y="0px"
	 viewBox="0 0 512 512" style="enable-background:new 0 0 512 512;" xml:space="preserve">
<style type="text/css">
	.st0{fill:#F0F0F0;}
	.st1{fill:#496E2D;}
	.st2{display:none;fill:#D80027;}
	.st3{fill:#E20917;stroke:#000000;stroke-width:3;stroke-miterlimit:10;}
</style>
<circle class="st0" cx="256" cy="256" r="256"/>
<path class="st1" d="M512,256c0,141.4-114.6,256-256,256S0,397.4,0,256"/>
<path class="st2" d="M443,178.1c-9.2-26-33.9-44.6-63-44.6h-57.2c-36.9,0-66.8,29.9-66.8,66.8c0,12.1,3.2,23.6,8.8,33.4
	c-21.3-0.2-40.9,0.1-53.3,0c0-25.8,0-58.6,0-65.4l2.6-2.6c11.8-11.8,7.9-31.5,7.9-31.5s-19.7-3.9-31.5,7.9l-13.8,13.8h-15.3
	c-33.8,0-61.2,27.4-61.2,61.2h44.5v50.1c0,7.3,1.5,14.3,4.1,20.7l-15.3,12.7h-22.3v-22.3H89v44.5h100.2v44.5H167v22.3h44.5V345
	l20.4-24.5h48.2l20.4,24.5v22.3h-22.3v22.3h89V267.1c0-18.4,15-33.4,33.4-33.4c0.5,0,0.9,0,1.4,0c-0.9-3.6-1.4-7.3-1.4-11.2
	C400.7,198.8,419.4,179.3,443,178.1z M322.8,367.3v-46.7h1.9L345,345v22.3L322.8,367.3L322.8,367.3z"/>
<g>
	<path class="st3" d="M406.7,401.3c-3.6-4.2-8.2-5.2-13.2-4c-4.9,1.2-9.9,2.2-14.6-0.1c-3.2-1.6-5.8-1.1-8.9-0.2
		c-9.3,2.8-18.8,2.9-28.3,0.4c-0.8-0.2-1.8,0-2.8,0.2c-2.6,0.5-5.1,1-7.4,1.5c0.7-2.9,1.8-5.3,1.8-7.7c0-1.4-1.3-3.2-2.5-4.2
		c-3-2.6-6.5-1.9-10.3,1.8c-1.9-4-0.5-8.3,3.6-10.1c1.5-0.7,3.1-1.1,4.7-1.4c3.3-0.7,5.2-2.8,4.7-5.4c-0.5-2.9-3.1-4.4-6.5-3.7
		c2.7-3.7,7.9-5.2,12.4-3c2.5,1.2,4.7,3.2,7,4.9c2.1,1.5,4.1,3.2,6.4,4.5c1.9,1,4,1,5.7-0.7c1.6-1.6,1.8-3.7,1-5.7
		c-0.7-1.6-1.6-3.2-2.7-4.6c-8.5-10.6-18.2-15.4-32.4-15.9c-4.1-9.4-10-17.5-18.7-23.3c-8.8-5.8-18.5-7.3-29.1-5.6
		c0.2-0.4,0.2-0.6,0.4-0.8c6.1-6.9,8.5-15.3,9.3-24.2c0.2-2.4,0.9-3.2,3.4-3.4c9.5-0.7,18.9-1.3,28.3,0.6
		c17.3,3.5,29.2,13.4,35.5,30c2,5.3,3.9,10.7,6.3,15.9c3.5,7.4,9.2,12.5,17.2,15c3.9,1.2,6.3,3.9,7.8,7.8c-1.5-0.3-2.8-0.6-4.2-0.8
		c-4.3-0.7-6.8,2.1-5.7,6.3c1,3.9,3.4,7,6.3,9.4c3.7,3.1,7.7,6,11.8,8.6c5.1,3.2,10.2,6.3,12.7,12.1c0.8,1.9,1.2,4,1.7,6
		C407.1,401.3,406.9,401.3,406.7,401.3z"/>
	<path class="st3" d="M437.6,195.3c-17.4,4.8-26.4,17.1-30.6,34c-2.3-2.4-4.6-4.8-6.9-7.3c-2.6,2.6-4.9,4.9-7.3,7.2
		c-1.8-1.7-3.6-3.4-5.6-5.4c2-2.2,4.2-4.5,6.6-7c-2.5-1.7-4.9-3.4-7.4-5.1c12.7-10.1,26.3-17.7,43-17.7c2.7,0,5.5,0.6,8.2,0.9
		C437.6,195,437.6,195.1,437.6,195.3z"/>
	<path class="st3" d="M167.7,283.8c1.2,4,1.9,7.9,3.4,11.3c4,9.3,11.9,12.9,21.4,13.9c7.4,0.8,14.7,0,21.9-1.3
		c0.5-0.1,0.9-0.1,1.4-0.2c-0.3,11.2-12,25.6-24.7,30.5c0.3,2.1,0.7,4.2,1.1,6.7c-7.2-2.3-13.8-3.6-19.8,2.1c4.4,3.6,5.2,7.9,3,13.1
		c-0.4-0.4-0.6-0.7-0.8-1c-3.7-4.9-9.1-6.5-14.3-4.2c-5.4,2.4-7.9,7.4-6.9,13.4c0.8,4.7,3.3,8.4,6.7,11.7c2.5,2.5,5,4.9,7.2,7.7
		c1.3,1.7,2.1,3.9,2.8,6.1c-6.2-3.6-12.3-2.7-18.4-0.5c-4.4,1.6-9,3.1-13.6,1.6c-3.2-1-5.8-0.4-8.8,0.7c-8.3,3.2-16.9,2.5-27.2-1.5
		c-3.4,3.7-7.4,4.2-12.4,2c3.1-1,5.7-2.2,6.1-5.3c0.2-1.6-0.3-3.5-1.2-4.8c-2.2-3.3-6.1-3-9.9,0.3c-2-5.1,1.8-10.7,7.5-11.4
		c1.1-0.1,2.3-0.1,3.4-0.3c3-0.5,4.9-2.6,4.8-5c-0.1-2.7-2.1-4.3-5.4-4.5c-0.2,0-0.4-0.1-0.7-0.2c2.6-3.4,8.3-4.4,12.6-1.7
		c2.4,1.5,4.3,3.7,6.4,5.6c0.8,0.8,1.4,1.8,2.3,2.5c3.2,2.4,5.8,3.5,9.8,1.2c6.7-3.9,10.9-10,14.3-16.6c2.4-4.6,4.2-9.4,4.2-14.7
		c0-0.6,0.3-1.2,0.7-1.7c4.2-5.3,6-11.5,6.1-18.2c0.1-3.3-0.3-6.5-0.4-9.8c-0.4-7.3,2.7-13.3,6.9-18.9
		C160,288.8,163.6,285.9,167.7,283.8z"/>
	<path class="st3" d="M376.8,175c3.6-2.5,7.7-4.2,11.4-6.3c-0.3-0.1-0.9-0.3-1.5-0.5c-3-1.2-6.2-2.2-9-3.7
		c-5.7-3.1-6.7-7.6-2.4-12.4c2.9-3.2,6.5-5.9,10.2-8.2c3.8-2.4,8.1-3.9,12.4-6c-0.7,0-1.1,0-1.5,0c-2.2,0.3-4.3,0.6-6.5,1
		c-24.9,3.9-49.3,9.7-72.6,19.3c-10.2,4.2-19.9,9.7-29.8,14.5c-0.2,0-0.3,0-0.5,0.1c-20.5,12.2-38.6,27.1-52.1,47
		c-0.5,0.8-1.3,1.4-1.9,2.1c-0.1-0.2-0.3-0.3-0.4-0.5c25.7-43.8,65.6-67.3,113.5-79.6c-2-0.5-3.9-0.5-5.8-1.1
		c-4.6-1.3-9.3-2.5-13.6-4.5c-3.6-1.6-4.4-4.4-3.5-8.2c1.1-4.4,3.7-7.8,6.8-10.9c2.1-2.1,4.4-4.1,7.1-6.6c-1.6,0.4-2.5,0.6-3.4,0.9
		c-36.5,10.9-65.7,32.1-88.3,62.6c-15.1,20.4-26.3,43-34.8,66.8c-1.6,4.4-5.5,6-7.9,9.2c5-13.6,9.3-27.2,11.1-41.5
		c0.7-5.9,1.1-11.8-0.6-18.2c-4.2,2.2-8.3,4.3-12.2,6.6c-2.1,1.2-3.4,3.1-4.1,5.5c-6.4,19.3-13,38.6-19.5,58
		c-2.5,7.5-4.6,15.2-4,23.2c0.8,12.5,8.1,20.3,19.9,20.4c7.6,0.1,15.2-0.4,22.7-1.3c14-1.6,27.5-5.4,41-9.3c3.7-1.1,3.7-1.1,3.6-4.8
		c-0.4-16.2-9.3-27.1-24.8-30.5c-2.7-0.6-5.4-0.9-8.2-1.3c0-0.3,0-0.5,0-0.8c4.1,0,8.3-0.5,12.3,0.1c4,0.6,7.8,2.4,11.9,3.8
		c5.3-3.9,11.4-6.5,18.4-7.1c7-0.6,13.4,1,19.5,4.1c13.6-16.6,30.2-20.1,49.7-12c0.7-2.9,1.3-5.8,1.9-8.6c0.2-0.6,0.4-1.2,0.7-1.8
		c4.7-13.2,13.7-21.4,27.5-23.9c3.2-0.6,6.6-0.7,9.9-1c-1.6-1.9-3.3-3.7-4.8-5.8c-1.5-2.1-2.8-4.2-3.9-6.5
		C366.6,188.4,368.6,180.7,376.8,175z M302.1,218.1c-16.6-4.6-32.9-2.3-48.9,10.5c4.5,0.2,8.8,0.9,12.8,2.2
		c5.1,1.8,9.7,4.7,13.6,9.3l0,0l0,0c-7.1-3.6-14.4-6.4-22.5-6.8c-0.3,0-0.5,0-0.8-0.1c-6.4-0.2-12.1,1.6-17.6,4.6
		c-1.8,1-3.6,2.1-5.3,3.3c0.3-0.7,0.6-1.4,1-2c3-4.8,6.3-9.1,10-12.6c6.9-6.7,15-11.2,24.3-13.3c5.5-1.3,11.4-1.8,17.8-1.4
		c10.6,0.6,20.4,3.8,29.5,9.4c2,1.5,3.9,2.9,5.9,4.4c0,0,0.1,0.1,0.1,0.2c0.1,0.2,0.3,0.5,0.7,1.2l0,0l0,0
		C315.8,223,308.9,220,302.1,218.1z M326.4,188.9c9,1.1,17.9,3.1,26.6,6.2c0,0,0,0,0,0c0,0,0,0,0,0c-3.7-0.5-7.4-1-11.1-1.4
		c-11.5-1.3-23.1-2-34.7-1.3c-3.1,0-6.2,0.3-9.2,0.8c-4,0.6-7.9,1.5-11.7,2.7c-3.3,1-6.6,2.2-9.8,3.6c-1.1,0.5-2.2,0.9-3.2,1.4
		c-0.3,0.1-0.5,0.2-0.8,0.3c-1.1,0.5-2.2,1-3.3,1.5c-0.2,0.1-0.4,0.1-0.6,0.2c-0.2,0-0.5,0-0.7,0c-0.1,0-0.2,0-0.4-0.1l0,0l0,0
		c3.4-2.3,6.6-4.9,10.1-7c2.1-1.2,4.2-2.3,6.3-3.5c2.3-1.3,4.7-2.6,7-3.9c2.7-1.5,5.4-2.9,8-4.4c8.2-2.8,16.3-5.9,24.5-8.3
		c0.7-0.2,1.4-0.4,2.1-0.6c3.2-0.9,6.5-1.6,9.8-2.2c1.7-0.3,3.4-0.7,5.1-1c3.8-0.7,7.6-1.3,11.4-2.1c0.8-0.2,1.7-0.1,2.9-0.1
		c0.4,0,0.8,0,1.3,0c-11.5,2.9-22.8,5.6-33.7,9.3c-7.1,2.4-14,5.3-20.7,8.9C310,187.6,318.3,187.9,326.4,188.9z"/>
	<path class="st3" d="M305.4,284.5c-1.1-9.1-3.7-17.4-10.5-23.8c0-0.2,0.1-0.5,0.1-0.7c5.2-0.2,10.3-0.8,15.5-0.7
		c9.9,0.2,19,3.7,27.9,7.7c5.4,2.4,11,4.6,17,5.1c11.3,0.9,22.6-7.5,24.1-18.2c0.6-4.3-0.1-8.5-2.2-12.3c-2.4-4.3-7.2-6.2-11.2-4.6
		c-2.7,1.1-4,3.1-3.2,5.2c0.7,2.2,3.2,3.4,5.8,2.7c1.3-0.4,2.5-1.2,3.8-1.8c2,1.6,2.8,3.9,2.9,6.4c0,1-0.6,2.2-1.3,2.9
		c-3.8,4.1-8.6,5.1-13.9,3.7c-5.7-1.5-9.5-5.3-11.1-11c-2.1-7.8,2.5-16.6,10.7-20.4c9.6-4.5,22.5-1.6,29.9,6.9
		c12.9,14.7,13.8,36.8,1.9,53.5c-9,12.6-21.4,20.3-36.1,24.7c-1.2,0.4-1.9,0.3-2.6-0.8c-10.9-16.4-26.6-23.6-45.8-24.4
		C306.5,284.5,306,284.5,305.4,284.5z"/>
	<path class="st3" d="M196,195.4c-6.4-4.4-12.7-8.7-18.9-13.1c-1.2-0.8-1.9-0.8-3.2,0c-2.4,1.4-5.1,2.5-7.7,3.7
		c-0.7,0.3-1.5,0.5-2.2,0.8c0,0.2,0,0.5,0,0.7c0.7,0.2,1.3,0.6,2,0.5c2.5-0.3,5-0.6,7.4-1.3c1.5-0.4,2.5-0.4,3.7,0.5
		c4.8,3.6,9.7,7,14.4,10.6c0.6,0.4,1.2,1.7,1,2.2c-4.1,12.8-8.4,25.5-12.7,38.4c-7.6-0.1-14.7,2-21.3,5.8c3.5-10.2,8.7-19,18.3-24.6
		c-8.5-7.4-25.1,0-29,13.5c-2.6-6.7-5-13-7.7-20c5.3,2.7,9.3-0.7,13.6-2.2c3.6-1.3,7.1-2.8,11-4.4c-3.1-2.8-5.8-5.4-8.7-7.8
		c-0.4-0.3-1.2-0.2-1.8-0.1c-4.3,0.8-8.5,1.7-12.8,2.3c-1.2,0.2-2.7-0.2-3.8-0.8c-1.8-1-3.5-2.2-5-3.5c-2.1-1.9-4.2-2.2-6.7-1.1
		c-0.5,0.2-1.1,0.2-1.7,0.3c2.9-6.4,8.1-9.1,16.6-8.6c2.1,0.1,4.2,0.1,6.4,0.2c5.1,0.4,9-1.8,11-6.2c2.4-5.4,6.7-6.9,11.8-6.9
		c4.8,0,9.6,0.4,14.3,1.3c10.3,2,20.2,1.4,29.3-4.2c7.8-4.8,12.1-12.1,14.2-21.2c5.3,6.2,6.7,12.9,4.5,20.4
		c-1.2,4.2-3.5,7.7-6.5,10.8c-1.6,1.7-3.5,2.7-5.8,3.3C211.4,186.7,203.1,189.4,196,195.4z"/>
	<path class="st3" d="M301.1,362.7c-1.7-3.4-3.9-5.6-7.5-5.5c-1,0-2.4,0.7-3,1.5c-4.9,6.7-3.6,17.7,2.9,23.4c2.4,2.2,5.2,4,7.8,6
		c2.6,2,4.7,4.4,6.1,8.1c-4.9-3.3-9.5-2.8-14.2-0.8c-4.8,2.1-9.4,1.3-13-2c-4.5,1.4-8.6,3.1-12.9,4.1c-6,1.3-11.9,0.5-17.5-1.8
		c-1.4-0.6-2.4-0.7-3.7,0.4c-2.2,1.9-4.9,2.4-8.1,1.5c2.2-2.1,4.1-4.2,3.6-7.2c-0.3-1.5-1-3.2-1.9-4.4c-2.6-3-6.1-3.1-10.5-0.5
		c-1.3-5.3,2.1-10,7.7-10.7c1.3-0.1,2.6-0.2,3.9-0.5c2.1-0.5,3.8-1.7,4.1-4c0.3-2.2-0.8-3.8-2.6-4.8c-0.2-0.1-0.5-0.3-0.9-0.7
		c4.9-1.1,9.1-0.2,12.7,2.5c2.5,1.9,4.7,4.3,7,6.4c2.5,2.3,5.4,3.6,8.7,2.4c3.4-1.2,5.3-3.9,5.5-7.4c0.1-1.7-0.3-3.6-1-5.2
		c-2.5-6.1-6.9-10.8-11.5-15.3c-1-1-1.9-2.3-2.1-3.6c-1.4-7.5,0-14.2,6.6-18.9c1.7-1.2,4-1.7,6.1-2c9.7-1.3,19.2-0.5,28.1,4.1
		c0.9,0.4,1.7,1,2.5,1.5c0.3,0.2,0.5,0.4,0.5,0.5c-2.1,2.4-4.2,4.6-6.2,6.9c-3.8,4.4-3.4,11.6,0.8,15
		C302,354.3,302.3,358.2,301.1,362.7z"/>
	<path class="st3" d="M145.5,327.2c-3.6-2.8-6.7-5.3-9.8-7.8c-4.9,3.7-10,6.6-16.9,5.9c9.7-8.2,12.9-17.8,7.8-29.5
		c-3.4-8-9.1-13.2-18.1-14.3c-2.2,6.3-5.7,11.2-12.6,13.4c1.8-4.8,2.9-9.3,2.3-14.1c-0.2-1.2-0.3-2.4-0.7-3.6
		c-1.5-4.9-1.2-9.7,0.6-14.5c-6-3.9-10.4-8.9-11.9-16.3c-5.2,0.4-9.2-1.6-12-6.3c5,1.3,7.4,0.6,9.4-2.4c1.8-2.7,1.7-6.5-0.2-9.2
		c-2.1-2.8-4.7-3.4-8.9-2c1.6-3.6,5.3-6.1,9.3-6.3c6.6-0.3,10.3,3.5,12.6,9.3c4.3-3.5,3.7-8.1-1.3-11.4c5.4-1.8,12.9,3.6,12.4,9.8
		c-0.3,3.7-0.8,7.3-0.6,11c0.4,8.9,4.8,16,10.8,22.1c3.1,3.2,6.7,6,10.4,8.5c3.7,2.5,7.8,4.4,11.8,6.5c-0.3,3.8-0.9,7.9-1,11.9
		c-0.2,7.2,1.4,14,5.3,20.3c1.1,1.7,1.1,4.2,1.2,6.4C145.6,318.6,145.5,322.6,145.5,327.2z"/>
	<path class="st3" d="M232.3,328.7c4.7-6.5,7.2-13.5,7.7-20.9c0.3-4.1,2.1-5.3,5.6-6c5.1-1.1,10-2.7,15.5-4.2
		c-0.4,2.5-0.6,4.6-1,6.7c-1.2,6.1-3.6,11.6-7.3,16.7C247.8,328,240.6,329,232.3,328.7z"/>
	<path class="st3" d="M171.6,263.4c-1.1,4.9-2.1,9.5-3.2,14.1c-0.1,0.6-0.7,1.3-1.3,1.5c-11,3.5-17.7,10.9-20.6,22.3
		c-0.4-1.1-0.9-2.1-1.2-3.2c-1.8-6.2-1.8-12.5-0.5-18.9c0.6-3.2,2.5-5.6,4.9-7.6C156,266,163.4,263.8,171.6,263.4z"/>
	<path class="st3" d="M88.1,197.2c9.1-6.4,18.9-6,29.3-3.7c-0.6,1.3-1.1,2.5-1.7,3.9c5.7,3.5,11.7,5.7,18.3,6.5
		c6.5,0.8,13,0.1,19.1-2.6c0.1,0.2,0.2,0.4,0.3,0.6c-1.6,2.3-3,4.9-4.8,6.9c-0.8,1-2.6,1.3-4,1.5c-9.4,1.8-18.1-0.7-26.4-4.9
		c-1.7-0.8-3.3-1.8-5-2.8c-0.7,1.5-1.4,2.9-2.3,4.7C105,200,97.9,195.5,88.1,197.2z"/>
	<path class="st3" d="M255.9,263.3c8.8-3.4,15.8-1.2,19.9,5.8c2.6,4.4,5.1,12.2,5.2,17.7c-5.1,1.4-10.2,2.8-15.4,4.3
		C264.4,281,264,270.8,255.9,263.3z"/>
	<path class="st3" d="M209.7,331.1c5.4-7,8.7-14.7,11.3-22.8c0.2-0.6,0.9-1.4,1.5-1.5c4.4-0.9,8.8-1.6,13.6-2.5
		c-1.2,9.4-3.1,18.3-10.8,24.6C220.6,332.6,215.2,331.9,209.7,331.1z"/>
	<path class="st3" d="M256.6,323.7c4.8-6.7,7.9-14.1,8.4-22.2c0.3-4.9,2.4-6.5,6.6-7.3c3.2-0.6,6.3-1.7,9.4-2.5
		C283.4,305.2,269.3,323.6,256.6,323.7z"/>
	<path class="st3" d="M285.8,285.8c-0.9-9.6-3.4-18.3-11.3-24.6c6.5-3,13.5-1.5,17.5,2.9c5.3,5.7,7.7,12.7,8.5,20.3
		C295.6,284.9,290.8,285.3,285.8,285.8z"/>
	<path class="st3" d="M147.7,267.4c-0.1-12.5,16-25.2,31-24.5c-1.7,5.2-3.4,10.3-5,15.5C163.9,258.3,155.3,261,147.7,267.4z"/>
	<path class="st3" d="M212.5,150.5c5.8,5.2,5.9,12.9,0.1,17.5c-6.4,5.2-14.1,5.7-22.1,5.5c0.6-4.6,3.3-7.1,6.8-8.9
		c1.1-0.6,2.4-1,3.7-1.3C207.8,161.6,212.4,158.2,212.5,150.5z"/>
</g>
</svg>
