<svg version="1.1" 
    xmlns="http://www.w3.org/2000/svg" 
    xmlns:xlink="http://www.w3.org/1999/xlink" x="0px" y="0px" viewBox="0 0 1000 1000" style="enable-background:new 0 0 1000 1000;" xml:space="preserve">
    <style type="text/css">
	.st0{display:none;}
	.st1{display:inline;fill:#FFFFFF;}
	.st2{fill:#22C1D9;}
	.st3{fill:#BBD801;}
	.st4{fill:#FFE904;}
	.st5{fill:#FE2645;}
	.st6{fill:#E7D290;}
	.st7{fill:#FFFFFF00;}
	.st8{fill:#E1E1E1;}
	.st9{font-family:'Vipnagorgialla';}
	.st10{font-size:158.1866px;}
	.st11{font-size:157.9704px;}
	.st12{font-size:158px;}
    </style>
    <g id="Background" class="st0">
        <rect x="-1" y="-1" class="st1" width="1002" height="1002"/>
    </g>
    <g id="Layer_1">
        <g id="PC2_2_">
            <path class="st2" d="M704.6,760c-41.3,0-80.7,0-121.4,0c33.4-156.6,66.5-312,99.7-467.4c43.5-16.2,85.9-31.9,131.7-48.9
			C777.6,417.4,741.2,588.2,704.6,760z"/>
            <path class="st3" d="M664.3,307.6c-31.8,150.1-63.6,300.3-95.7,451.4c-40.4,0-80.1,0-121.5,0c29.3-137.8,58.5-274.5,87.9-412.5
			c43.1-15.8,86.1-31.5,129-47.3C664.1,302.1,664.2,304.8,664.3,307.6z"/>
            <path class="st4" d="M432.3,760c-41.3,0-80.6,0-121.3,0c25.5-119.6,50.7-238,76.2-357.6c42.8-15.9,85.6-31.8,131.7-48.9
			C489.7,490.4,461.1,624.8,432.3,760z"/>
            <path class="st5" d="M371,408.4c-25.3,118.8-50.1,235-74.9,351.6c-40.5,0-79.8,0-121.2,0c21.6-101.4,43-201.8,64.5-302.8
			C282.5,441.2,325.3,425.3,371,408.4z"/>
            <path class="st5" d="M262.8,346.2c8.4-39.1,16.1-75.2,24-112.2c40.1,0,79.8,0,121.1,0c-6,28.4-11.9,56.2-18.1,85.4
			C348.3,328.2,306.9,336.9,262.8,346.2z"/>
            <path class="st4" d="M405.3,316.8c6.2-29.2,11.9-55.9,17.7-82.8c40.7,0,80,0,121.2,0c-4.1,19.1-7.9,37.1-12,56
			C490.6,298.8,449.6,307.5,405.3,316.8z"/>
            <path class="st3" d="M559,234c40.6,0,79.4,0,120.6,0c-1.4,8.6-2.8,16.3-4.4,26c-41.4,8.8-82.8,17.5-127.2,26.9
			C551.9,268.2,555.3,251.8,559,234z"/>
            <path class="st2" d="M690.1,256.9c2.2-9.2,3.7-15.6,5.4-22.9c33.1,0,65.5,0,103,0C760.2,242.1,726.6,249.2,690.1,256.9z"/>
            <path class="st6" d="M664.3,307.9c-0.1-2.8-0.2-5.5-0.3-8.3C664.1,302.4,664.2,305.1,664.3,307.9z"/>
        </g>
    </g>
    <g id="EERC">
        <rect x="149" y="644" class="st7" width="615" height="170"/>
        <text transform="matrix(1.0034 0 -0.2133 0.977 578.4877 759.9323)" class="st8 st9 st10">C</text>
        <text transform="matrix(0.9741 0 -0.207 0.9783 444.1784 758.9577)" class="st8 st9 st11">R</text>
        <text transform="matrix(0.9782 0 -0.2079 0.9782 307.2526 759.9853)" class="st8 st9 st12">E</text>
        <text transform="matrix(0.9782 0 -0.2079 0.9782 171.2526 759.9853)" class="st8 st9 st12">E</text>
    </g>
</svg>
